<?xml version="1.0" encoding="UTF-8"?>
<svg xmlns="http://www.w3.org/2000/svg" xmlns:xlink="http://www.w3.org/1999/xlink" width="px" height="90px" viewBox="0 0 90 90" version="1.1">
<g id="surface1">
<path style=" stroke:none;fill-rule:nonzero;fill:rgb(97.254902%,97.254902%,97.254902%);fill-opacity:1;" d="M 23.71875 47.933594 L 33.585938 47.933594 L 33.585938 88.546875 C 33.585938 89.351562 34.234375 90 35.039062 90 L 51.765625 90 C 52.566406 90 53.214844 89.351562 53.214844 88.546875 L 53.214844 48.125 L 64.558594 48.125 C 65.292969 48.125 65.914062 47.570312 66 46.839844 L 67.722656 31.886719 C 67.769531 31.476562 67.640625 31.0625 67.363281 30.753906 C 67.089844 30.445312 66.695312 30.269531 66.28125 30.269531 L 53.214844 30.269531 L 53.214844 20.898438 C 53.214844 18.070312 54.738281 16.640625 57.738281 16.640625 C 58.167969 16.640625 66.28125 16.640625 66.28125 16.640625 C 67.082031 16.640625 67.730469 15.988281 67.730469 15.1875 L 67.730469 1.460938 C 67.730469 0.660156 67.082031 0.0117188 66.28125 0.0117188 L 54.507812 0.0117188 C 54.425781 0.0078125 54.242188 0 53.96875 0 C 51.925781 0 44.828125 0.402344 39.21875 5.558594 C 33.007812 11.277344 33.871094 18.121094 34.078125 19.308594 L 34.078125 30.269531 L 23.71875 30.269531 C 22.917969 30.269531 22.269531 30.917969 22.269531 31.722656 L 22.269531 46.480469 C 22.269531 47.285156 22.917969 47.933594 23.71875 47.933594 Z M 23.71875 47.933594 "/>
</g>
</svg>
