<?xml version="1.0" encoding="UTF-8"?>
<svg xmlns="http://www.w3.org/2000/svg" xmlns:xlink="http://www.w3.org/1999/xlink" width="50px" height="50px" viewBox="0 0 50 50" version="1.1">
<g id="surface1">
<path style=" stroke:none;fill-rule:nonzero;fill:rgb(89.411765%,1.960784%,12.941177%);fill-opacity:1;" d="M 50 25.027344 C 50 38.816406 38.816406 50.054688 24.972656 50.054688 C 11.183594 50 0 38.816406 0 25.027344 C 0 11.183594 11.183594 0 25.027344 0 C 38.816406 0 50 11.183594 50 25.027344 "/>
<path style=" stroke:none;fill-rule:nonzero;fill:rgb(100%,100%,100%);fill-opacity:1;" d="M 25.027344 1.304688 C 11.945312 1.304688 1.304688 11.945312 1.304688 25.027344 C 1.304688 38.109375 11.945312 48.695312 25.027344 48.695312 C 38.109375 48.695312 48.695312 38.109375 48.695312 25.027344 C 48.695312 11.945312 38.109375 1.304688 25.027344 1.304688 M 25.027344 47.394531 C 12.648438 47.394531 2.660156 37.351562 2.660156 25.027344 C 2.660156 12.648438 12.703125 2.660156 25.027344 2.660156 C 37.351562 2.660156 47.394531 12.703125 47.394531 25.027344 C 47.394531 37.351562 37.351562 47.394531 25.027344 47.394531 M 20.574219 31.757812 C 17.914062 30.292969 16.125 27.523438 16.125 24.320312 C 16.125 19.597656 20.085938 15.742188 25.027344 15.742188 C 28.011719 15.742188 30.671875 17.15625 32.246094 19.328125 L 32.246094 7.21875 L 36.210938 7.21875 L 36.210938 17.425781 L 40.335938 17.425781 L 40.335938 20.359375 L 32.898438 20.359375 C 33.550781 21.550781 33.875 22.855469 33.875 24.320312 L 33.875 24.703125 C 32.574219 23.617188 31 22.53125 29.097656 21.445312 C 28.175781 20.03125 26.65625 19.054688 25.027344 19.054688 C 22.367188 19.054688 20.085938 21.390625 20.085938 24.320312 C 20.085938 27.253906 22.367188 29.585938 25.027344 29.585938 C 25.246094 29.585938 25.460938 29.585938 25.679688 29.53125 C 27.035156 30.292969 28.230469 31.054688 29.097656 31.921875 C 27.851562 32.519531 26.492188 32.898438 25.027344 32.898438 C 23.398438 32.898438 21.878906 32.464844 20.574219 31.757812 M 17.371094 32.355469 C 18.890625 36.101562 22.421875 39.25 26.058594 39.25 C 28.988281 39.25 31.214844 37.785156 31.214844 34.851562 C 31.214844 30.890625 26.492188 29.152344 22.148438 26.765625 C 21.878906 26.601562 21.5 26.382812 21.226562 26.167969 C 21.011719 25.625 20.847656 24.972656 20.847656 24.375 C 20.847656 22.203125 22.367188 20.359375 24.265625 19.976562 C 25.460938 20.519531 26.820312 21.117188 28.121094 21.878906 C 35.34375 25.894531 37.785156 29.585938 37.785156 33.875 C 37.839844 40.335938 32.300781 43.972656 26.710938 43.972656 C 21.550781 43.972656 16.992188 40.335938 15.148438 36.15625 L 15.148438 40.824219 L 11.183594 40.824219 L 11.183594 27.632812 L 15.148438 27.632812 L 15.148438 31.921875 M 15.636719 21.878906 C 14.167969 20.195312 13.136719 18.078125 13.136719 15.472656 C 13.136719 9.828125 18.296875 5.917969 24.320312 5.917969 C 27.035156 5.917969 29.480469 6.894531 31.378906 8.359375 L 31.378906 13.464844 C 29.585938 11.453125 27.199219 10.476562 24.972656 10.476562 C 22.148438 10.476562 19.707031 12.160156 19.707031 14.765625 C 19.707031 15.308594 19.816406 15.851562 19.976562 16.285156 C 17.914062 17.535156 16.285156 19.542969 15.636719 21.878906 "/>
<path style=" stroke:none;fill-rule:nonzero;fill:rgb(100%,100%,100%);fill-opacity:1;" d="M 13.734375 33.386719 L 19.054688 27.851562 L 21.445312 30.074219 L 14.113281 37.566406 Z M 13.734375 33.386719 "/>
</g>
</svg>
