<?xml version="1.0" encoding="UTF-8"?>
<svg xmlns="http://www.w3.org/2000/svg" xmlns:xlink="http://www.w3.org/1999/xlink" width="px" height="90px" viewBox="0 0 128 90" version="1.1">
<g id="surface1">
<path style=" stroke:none;fill-rule:nonzero;fill:rgb(97.254902%,97.254902%,97.254902%);fill-opacity:1;" d="M 51.019531 63.984375 L 51.019531 26.019531 L 84.242188 45.003906 Z M 124.917969 14.070312 C 123.417969 8.53125 119.179688 4.25 113.792969 2.734375 L 113.679688 2.707031 C 100.144531 0.980469 84.492188 -0.0078125 68.605469 -0.0078125 C 66.992188 -0.0078125 65.382812 0 63.773438 0.0195312 L 64.019531 0.015625 C 62.65625 0 61.050781 -0.0117188 59.433594 -0.0117188 C 43.550781 -0.0117188 27.890625 0.976562 12.515625 2.886719 L 14.355469 2.699219 C 8.859375 4.246094 4.621094 8.523438 3.148438 13.953125 L 3.125 14.0625 C 1.429688 23.039062 0.460938 33.375 0.460938 43.929688 C 0.460938 44.304688 0.460938 44.679688 0.464844 45.050781 L 0.464844 44.992188 C 0.464844 45.304688 0.460938 45.679688 0.460938 46.054688 C 0.460938 56.613281 1.433594 66.941406 3.285156 76.960938 L 3.125 75.921875 C 4.625 81.460938 8.863281 85.742188 14.25 87.257812 L 14.363281 87.285156 C 27.898438 89.011719 43.550781 90 59.433594 90 C 61.046875 90 62.65625 89.992188 64.265625 89.96875 L 64.019531 89.972656 C 65.386719 89.992188 66.996094 90.003906 68.605469 90.003906 C 84.496094 90.003906 100.152344 89.015625 115.527344 87.105469 L 113.6875 87.292969 C 119.1875 85.75 123.425781 81.46875 124.902344 76.039062 L 124.925781 75.929688 C 126.617188 66.949219 127.585938 56.617188 127.585938 46.0625 C 127.585938 45.691406 127.585938 45.316406 127.582031 44.945312 L 127.582031 45 C 127.582031 44.683594 127.585938 44.308594 127.585938 43.9375 C 127.585938 33.378906 126.613281 23.050781 124.761719 13.03125 L 124.921875 14.070312 Z M 124.917969 14.070312 "/>
</g>
</svg>
